<svg width="30" height="28" viewBox="0 0 30 28" fill="none" xmlns="http://www.w3.org/2000/svg">
<path d="M5.0625 6.91664C5.0625 6.78027 5.17246 6.66992 5.30975 6.66992C5.44628 6.66992 5.55647 6.77953 5.55693 6.91664C5.55647 7.05462 5.44541 7.16436 5.30975 7.16436C5.17333 7.16436 5.0625 7.05388 5.0625 6.91664Z" fill="black" stroke="#808080"/>
<path d="M1.49004 13.6998C1.49004 13.6998 1.4898 13.6993 1.48951 13.6993C1.48928 13.6988 1.48881 13.6988 1.48828 13.6982L1.49004 13.6998Z" fill="black"/>
<path d="M0.45623 8.46906L0.442402 8.45805C0.441934 8.45805 0.441699 8.45805 0.441406 8.45752L0.45623 8.46906Z" fill="black"/>
<path d="M2.10352 1.73363L2.10979 1.72754C2.11031 1.72707 2.11055 1.7266 2.11107 1.72607L2.10352 1.73363Z" fill="black"/>
<mask id="path-5-inside-1_964_250" fill="white">
<path d="M29.0437 6.76971L29.0432 6.76871C27.87 5.5318 26.1646 4.84977 24.3935 4.84373V4.84273H24.3714C22.672 4.84121 20.8879 5.4882 19.5021 6.92105C18.7626 7.6843 18.2552 8.48363 17.8663 9.22232C17.5748 9.77568 17.3473 10.2954 17.1386 10.7449C16.9825 11.0812 16.8362 11.3783 16.6901 11.6214C16.4678 11.9888 16.2615 12.2178 16.0175 12.3696H16.0172C15.8912 12.4479 15.7552 12.508 15.5743 12.5546H15.5728C15.3931 12.6006 15.1699 12.6303 14.8892 12.6303C14.1998 12.6297 13.6037 12.4889 13.0747 12.2493C12.2844 11.89 11.6414 11.2971 11.1638 10.5779C10.6894 9.8658 10.389 9.03037 10.2875 8.24656H10.2865C10.276 7.80102 10.2061 7.36648 10.072 6.95762C9.86654 6.33014 9.52148 5.7343 9.08174 5.20648C9.23637 4.97498 9.37764 4.74447 9.48691 4.5149L9.48767 4.51344C9.69392 4.07586 9.82547 3.63137 9.82717 3.1748C9.82717 2.58189 9.58564 2.04066 9.19752 1.65324C8.80986 1.26582 8.26939 1.0243 7.67795 1.0243C7.54992 1.0243 7.42635 1.04129 7.30512 1.06338C7.22566 0.942559 7.13572 0.828359 7.03271 0.725586L7.02545 0.718555L7.03377 0.727109C6.64658 0.33875 6.10588 0.097168 5.51443 0.097168C4.92287 0.097168 4.38234 0.33875 3.99521 0.726113C3.8724 0.848398 3.76916 0.987676 3.68021 1.13604C3.63885 1.13299 3.59854 1.12701 3.55646 1.12701C2.99314 1.12701 2.47822 1.35752 2.10955 1.72736C1.73971 2.09627 1.51096 2.61096 1.51072 3.17322C1.51166 3.55361 1.61338 3.92047 1.77404 4.28281C1.83545 4.42115 1.90764 4.56096 1.98779 4.70229C1.41826 5.20549 0.838652 5.88852 0.233789 6.81869C0.172852 6.91244 0.116953 7.01768 0.0746484 7.13445L0.073418 7.13797C0.0305859 7.25879 0.000234375 7.39801 0 7.55346C0.000234375 7.68025 0.020332 7.80752 0.065625 7.93479C0.150586 8.17285 0.296895 8.34172 0.440508 8.45697L0.441973 8.45803C0.560273 8.55225 0.682793 8.61641 0.789316 8.661L0.791836 8.66193C0.975762 8.73764 1.15113 8.7752 1.30652 8.80074H1.30881C1.54611 8.83836 1.7734 8.85037 1.96811 8.85594C2.0959 8.85992 2.21314 8.86145 2.29635 8.86291C2.03045 9.26281 1.6732 9.83117 1.24266 10.5914C0.961289 11.0886 0.812637 11.5968 0.812637 12.0904V12.0963C0.812402 12.7369 1.07373 13.3087 1.48998 13.6991C1.90143 14.087 2.44318 14.2955 2.999 14.296H2.99947H3.0017L3.0443 14.294L3.04406 14.2924C3.24604 14.2885 3.44877 14.2534 3.64723 14.1927C3.64875 14.2789 3.65555 14.3676 3.65555 14.4533C3.65555 15.0412 3.62672 15.6165 3.57029 16.1462H3.57053C3.50666 16.7036 3.47232 17.2523 3.47232 17.7895C3.4718 19.4263 3.78809 20.9729 4.49924 22.3872C5.20963 23.802 6.30668 25.0679 7.80088 26.171C9.23971 27.2279 11.2629 27.8975 13.4104 27.9025H13.4111C14.4503 27.9025 15.5205 27.7416 16.5579 27.3707C18.113 26.8175 19.5899 25.7826 20.7206 24.1733C21.7374 22.729 22.4661 20.8331 22.7984 18.4446C23.0795 18.39 23.3426 18.2907 23.5767 18.1575L23.5516 18.1715L23.5771 18.1569C23.5777 18.1564 23.5786 18.1559 23.5796 18.1555L23.5777 18.1564L23.5801 18.1549C24.1073 17.8502 24.5098 17.3987 24.7935 16.9035L24.7945 16.9015C25.0546 16.4414 25.2185 15.9237 25.244 15.3875C25.9812 15.3048 26.6347 14.9675 27.1244 14.504C27.4086 14.2348 27.6441 13.9186 27.8125 13.5663C27.9809 13.2155 28.0832 12.8226 28.0832 12.4111V12.4081V12.4021H28.0826C28.0821 12.2302 28.0605 12.0563 28.0215 11.8839C28.1037 11.8589 28.1874 11.8383 28.266 11.8067L28.264 11.8077C28.8394 11.5792 29.2914 11.1803 29.5806 10.7006L29.5751 10.7097L29.5801 10.7016C29.8693 10.2255 30.0001 9.68527 30.0001 9.15148C29.9985 8.30275 29.6752 7.44025 29.0437 6.76971ZM3.03727 2.65414C3.17156 2.52037 3.35273 2.43916 3.55646 2.43863C3.73588 2.43916 3.89725 2.50227 4.0258 2.6085C4.14809 2.70975 4.31725 2.72932 4.45934 2.65812C4.60166 2.58693 4.68785 2.43963 4.67959 2.28078L4.6773 2.24668V2.24469C4.6773 2.01266 4.77023 1.80617 4.92234 1.65383C5.07498 1.50195 5.28193 1.40826 5.51443 1.40826C5.7467 1.40826 5.95348 1.50195 6.10658 1.65383C6.25816 1.80664 6.35168 2.01371 6.35168 2.24568L6.34764 2.32391C6.33041 2.49682 6.42732 2.6617 6.58623 2.73031C6.74584 2.79898 6.93252 2.75691 7.04607 2.62514C7.20193 2.44719 7.42523 2.33645 7.67801 2.33592C7.91057 2.33645 8.11758 2.42914 8.2701 2.58148C8.42244 2.73383 8.51519 2.94031 8.51519 3.17334C8.51619 3.36682 8.45279 3.63647 8.30268 3.95164C8.19217 4.18467 8.03502 4.44178 7.83258 4.71441C7.57975 4.5285 7.30834 4.3666 7.01971 4.24279C6.61072 4.06689 6.16822 3.96318 5.70867 3.96318C5.57438 3.96318 5.42303 3.95867 5.25838 3.95867C4.98398 3.95867 4.66998 3.97068 4.32568 4.03836C4.01549 4.09854 3.68145 4.20723 3.33217 4.38664C3.17326 4.14758 3.05402 3.93459 2.97258 3.75113C2.86254 3.50305 2.8217 3.30963 2.82223 3.17328C2.82275 2.96943 2.90367 2.78803 3.03727 2.65414ZM3.585 12.7716C3.4016 12.9205 3.19963 12.9841 2.99941 12.9846C2.7709 12.9846 2.54941 12.8974 2.38998 12.7456C2.2309 12.5932 2.1259 12.3847 2.12414 12.0905C2.12414 11.863 2.19258 11.5769 2.38395 11.2381C2.81672 10.4738 3.16957 9.91555 3.42111 9.5402C3.44045 9.58982 3.46049 9.64098 3.47953 9.69254C3.70154 10.2924 3.87592 11.0527 3.99223 11.8771C4.00178 11.9447 4.00875 12.0154 4.0173 12.0846C3.91072 12.4167 3.75369 12.6338 3.585 12.7716ZM28.2855 10.2503C28.1521 10.3901 27.9872 10.5059 27.7778 10.5901C27.5693 10.6737 27.3152 10.7249 27.0085 10.7249C26.8386 10.7249 26.6537 10.7088 26.4522 10.6743C26.2668 10.6427 26.0834 10.7455 26.0137 10.9199C25.9441 11.0948 26.0067 11.2958 26.1636 11.4005C26.3946 11.5548 26.543 11.7218 26.6367 11.8891C26.7304 12.0575 26.7715 12.2304 26.772 12.4113C26.772 12.6028 26.7234 12.8047 26.6292 13.0012C26.4888 13.2963 26.2447 13.5755 25.94 13.7754C25.6358 13.9759 25.2755 14.0967 24.8996 14.0962C24.65 14.0962 24.3909 14.044 24.1253 13.9222C23.9469 13.8396 23.7354 13.8997 23.6262 14.0631C23.5174 14.2259 23.543 14.4444 23.6878 14.5778C23.773 14.657 23.8337 14.7496 23.8768 14.8624C23.9199 14.9752 23.9429 15.108 23.9429 15.2558C23.9429 15.4608 23.8978 15.6918 23.8116 15.9194C23.6828 16.2612 23.4613 16.5914 23.1987 16.8219C23.0679 16.9372 22.9276 17.0279 22.7858 17.0891C22.6429 17.1497 22.5001 17.1818 22.3543 17.1818C22.2691 17.1818 22.1838 17.1713 22.0946 17.1482C21.9814 17.1182 21.8611 17.1402 21.7654 17.2068C21.6696 17.274 21.608 17.3797 21.5965 17.4955C21.4291 19.2361 21.0523 20.6724 20.531 21.8466C19.7477 23.6082 18.6452 24.7824 17.4021 25.5291C16.1589 26.2749 14.7674 26.5906 13.411 26.5911C11.5437 26.5936 9.74877 25.9827 8.58059 25.1162C7.22244 24.1119 6.28002 23.0098 5.67111 21.799C5.06268 20.5872 4.78453 19.2596 4.78436 17.7897C4.78436 17.3046 4.81459 16.8045 4.8743 16.2883L4.87477 16.2847C4.93641 15.7034 4.9667 15.0834 4.9667 14.4535C4.966 12.8848 4.78154 11.2505 4.40818 9.96506C4.22021 9.32158 3.98766 8.76477 3.68303 8.33428C3.52939 8.11977 3.35619 7.93531 3.15205 7.7965C2.94908 7.6577 2.70902 7.56699 2.4549 7.55598C2.34018 7.55041 2.19932 7.55094 2.04346 7.54643C1.92697 7.54291 1.80469 7.53787 1.6902 7.52738C1.60447 7.51988 1.52303 7.50887 1.45359 7.49533L1.37168 7.47576C1.79666 6.82877 2.19434 6.33559 2.56219 5.96275C3.13125 5.3859 3.62414 5.09422 4.05891 4.93736C4.49438 4.7815 4.88033 4.75742 5.25844 4.75701C5.40926 4.75701 5.55885 4.761 5.70873 4.761C6.04729 4.761 6.38203 4.83717 6.70459 4.9765C7.18799 5.18398 7.64273 5.53426 8.01287 5.95977C8.38342 6.38428 8.66889 6.88191 8.82574 7.36402C8.92723 7.67527 8.98184 8.0075 8.98184 8.35385L8.98506 8.40494C9.15621 9.72348 9.74754 11.0916 10.7404 12.1496C11.2375 12.6778 11.8364 13.1268 12.5317 13.4431C13.2266 13.7594 14.0179 13.9422 14.8892 13.9417C15.33 13.9417 15.7181 13.8866 16.0629 13.7783C16.3646 13.6836 16.6315 13.5483 16.8647 13.3799C17.2742 13.0842 17.5757 12.6968 17.8292 12.2708C18.2088 11.6294 18.4948 10.8921 18.8749 10.1299C19.254 9.36758 19.7205 8.58031 20.4442 7.83307C21.5774 6.66482 22.9997 6.1557 24.3774 6.15418C25.8172 6.15266 27.1964 6.72049 28.09 7.67018C28.4849 8.08666 28.6894 8.63943 28.6884 9.1516C28.6879 9.58068 28.5491 9.97057 28.2855 10.2503Z"/>
</mask>
<path d="M29.0437 6.76971L29.0432 6.76871C27.87 5.5318 26.1646 4.84977 24.3935 4.84373V4.84273H24.3714C22.672 4.84121 20.8879 5.4882 19.5021 6.92105C18.7626 7.6843 18.2552 8.48363 17.8663 9.22232C17.5748 9.77568 17.3473 10.2954 17.1386 10.7449C16.9825 11.0812 16.8362 11.3783 16.6901 11.6214C16.4678 11.9888 16.2615 12.2178 16.0175 12.3696H16.0172C15.8912 12.4479 15.7552 12.508 15.5743 12.5546H15.5728C15.3931 12.6006 15.1699 12.6303 14.8892 12.6303C14.1998 12.6297 13.6037 12.4889 13.0747 12.2493C12.2844 11.89 11.6414 11.2971 11.1638 10.5779C10.6894 9.8658 10.389 9.03037 10.2875 8.24656H10.2865C10.276 7.80102 10.2061 7.36648 10.072 6.95762C9.86654 6.33014 9.52148 5.7343 9.08174 5.20648C9.23637 4.97498 9.37764 4.74447 9.48691 4.5149L9.48767 4.51344C9.69392 4.07586 9.82547 3.63137 9.82717 3.1748C9.82717 2.58189 9.58564 2.04066 9.19752 1.65324C8.80986 1.26582 8.26939 1.0243 7.67795 1.0243C7.54992 1.0243 7.42635 1.04129 7.30512 1.06338C7.22566 0.942559 7.13572 0.828359 7.03271 0.725586L7.02545 0.718555L7.03377 0.727109C6.64658 0.33875 6.10588 0.097168 5.51443 0.097168C4.92287 0.097168 4.38234 0.33875 3.99521 0.726113C3.8724 0.848398 3.76916 0.987676 3.68021 1.13604C3.63885 1.13299 3.59854 1.12701 3.55646 1.12701C2.99314 1.12701 2.47822 1.35752 2.10955 1.72736C1.73971 2.09627 1.51096 2.61096 1.51072 3.17322C1.51166 3.55361 1.61338 3.92047 1.77404 4.28281C1.83545 4.42115 1.90764 4.56096 1.98779 4.70229C1.41826 5.20549 0.838652 5.88852 0.233789 6.81869C0.172852 6.91244 0.116953 7.01768 0.0746484 7.13445L0.073418 7.13797C0.0305859 7.25879 0.000234375 7.39801 0 7.55346C0.000234375 7.68025 0.020332 7.80752 0.065625 7.93479C0.150586 8.17285 0.296895 8.34172 0.440508 8.45697L0.441973 8.45803C0.560273 8.55225 0.682793 8.61641 0.789316 8.661L0.791836 8.66193C0.975762 8.73764 1.15113 8.7752 1.30652 8.80074H1.30881C1.54611 8.83836 1.7734 8.85037 1.96811 8.85594C2.0959 8.85992 2.21314 8.86145 2.29635 8.86291C2.03045 9.26281 1.6732 9.83117 1.24266 10.5914C0.961289 11.0886 0.812637 11.5968 0.812637 12.0904V12.0963C0.812402 12.7369 1.07373 13.3087 1.48998 13.6991C1.90143 14.087 2.44318 14.2955 2.999 14.296H2.99947H3.0017L3.0443 14.294L3.04406 14.2924C3.24604 14.2885 3.44877 14.2534 3.64723 14.1927C3.64875 14.2789 3.65555 14.3676 3.65555 14.4533C3.65555 15.0412 3.62672 15.6165 3.57029 16.1462H3.57053C3.50666 16.7036 3.47232 17.2523 3.47232 17.7895C3.4718 19.4263 3.78809 20.9729 4.49924 22.3872C5.20963 23.802 6.30668 25.0679 7.80088 26.171C9.23971 27.2279 11.2629 27.8975 13.4104 27.9025H13.4111C14.4503 27.9025 15.5205 27.7416 16.5579 27.3707C18.113 26.8175 19.5899 25.7826 20.7206 24.1733C21.7374 22.729 22.4661 20.8331 22.7984 18.4446C23.0795 18.39 23.3426 18.2907 23.5767 18.1575L23.5516 18.1715L23.5771 18.1569C23.5777 18.1564 23.5786 18.1559 23.5796 18.1555L23.5777 18.1564L23.5801 18.1549C24.1073 17.8502 24.5098 17.3987 24.7935 16.9035L24.7945 16.9015C25.0546 16.4414 25.2185 15.9237 25.244 15.3875C25.9812 15.3048 26.6347 14.9675 27.1244 14.504C27.4086 14.2348 27.6441 13.9186 27.8125 13.5663C27.9809 13.2155 28.0832 12.8226 28.0832 12.4111V12.4081V12.4021H28.0826C28.0821 12.2302 28.0605 12.0563 28.0215 11.8839C28.1037 11.8589 28.1874 11.8383 28.266 11.8067L28.264 11.8077C28.8394 11.5792 29.2914 11.1803 29.5806 10.7006L29.5751 10.7097L29.5801 10.7016C29.8693 10.2255 30.0001 9.68527 30.0001 9.15148C29.9985 8.30275 29.6752 7.44025 29.0437 6.76971ZM3.03727 2.65414C3.17156 2.52037 3.35273 2.43916 3.55646 2.43863C3.73588 2.43916 3.89725 2.50227 4.0258 2.6085C4.14809 2.70975 4.31725 2.72932 4.45934 2.65812C4.60166 2.58693 4.68785 2.43963 4.67959 2.28078L4.6773 2.24668V2.24469C4.6773 2.01266 4.77023 1.80617 4.92234 1.65383C5.07498 1.50195 5.28193 1.40826 5.51443 1.40826C5.7467 1.40826 5.95348 1.50195 6.10658 1.65383C6.25816 1.80664 6.35168 2.01371 6.35168 2.24568L6.34764 2.32391C6.33041 2.49682 6.42732 2.6617 6.58623 2.73031C6.74584 2.79898 6.93252 2.75691 7.04607 2.62514C7.20193 2.44719 7.42523 2.33645 7.67801 2.33592C7.91057 2.33645 8.11758 2.42914 8.2701 2.58148C8.42244 2.73383 8.51519 2.94031 8.51519 3.17334C8.51619 3.36682 8.45279 3.63647 8.30268 3.95164C8.19217 4.18467 8.03502 4.44178 7.83258 4.71441C7.57975 4.5285 7.30834 4.3666 7.01971 4.24279C6.61072 4.06689 6.16822 3.96318 5.70867 3.96318C5.57438 3.96318 5.42303 3.95867 5.25838 3.95867C4.98398 3.95867 4.66998 3.97068 4.32568 4.03836C4.01549 4.09854 3.68145 4.20723 3.33217 4.38664C3.17326 4.14758 3.05402 3.93459 2.97258 3.75113C2.86254 3.50305 2.8217 3.30963 2.82223 3.17328C2.82275 2.96943 2.90367 2.78803 3.03727 2.65414ZM3.585 12.7716C3.4016 12.9205 3.19963 12.9841 2.99941 12.9846C2.7709 12.9846 2.54941 12.8974 2.38998 12.7456C2.2309 12.5932 2.1259 12.3847 2.12414 12.0905C2.12414 11.863 2.19258 11.5769 2.38395 11.2381C2.81672 10.4738 3.16957 9.91555 3.42111 9.5402C3.44045 9.58982 3.46049 9.64098 3.47953 9.69254C3.70154 10.2924 3.87592 11.0527 3.99223 11.8771C4.00178 11.9447 4.00875 12.0154 4.0173 12.0846C3.91072 12.4167 3.75369 12.6338 3.585 12.7716ZM28.2855 10.2503C28.1521 10.3901 27.9872 10.5059 27.7778 10.5901C27.5693 10.6737 27.3152 10.7249 27.0085 10.7249C26.8386 10.7249 26.6537 10.7088 26.4522 10.6743C26.2668 10.6427 26.0834 10.7455 26.0137 10.9199C25.9441 11.0948 26.0067 11.2958 26.1636 11.4005C26.3946 11.5548 26.543 11.7218 26.6367 11.8891C26.7304 12.0575 26.7715 12.2304 26.772 12.4113C26.772 12.6028 26.7234 12.8047 26.6292 13.0012C26.4888 13.2963 26.2447 13.5755 25.94 13.7754C25.6358 13.9759 25.2755 14.0967 24.8996 14.0962C24.65 14.0962 24.3909 14.044 24.1253 13.9222C23.9469 13.8396 23.7354 13.8997 23.6262 14.0631C23.5174 14.2259 23.543 14.4444 23.6878 14.5778C23.773 14.657 23.8337 14.7496 23.8768 14.8624C23.9199 14.9752 23.9429 15.108 23.9429 15.2558C23.9429 15.4608 23.8978 15.6918 23.8116 15.9194C23.6828 16.2612 23.4613 16.5914 23.1987 16.8219C23.0679 16.9372 22.9276 17.0279 22.7858 17.0891C22.6429 17.1497 22.5001 17.1818 22.3543 17.1818C22.2691 17.1818 22.1838 17.1713 22.0946 17.1482C21.9814 17.1182 21.8611 17.1402 21.7654 17.2068C21.6696 17.274 21.608 17.3797 21.5965 17.4955C21.4291 19.2361 21.0523 20.6724 20.531 21.8466C19.7477 23.6082 18.6452 24.7824 17.4021 25.5291C16.1589 26.2749 14.7674 26.5906 13.411 26.5911C11.5437 26.5936 9.74877 25.9827 8.58059 25.1162C7.22244 24.1119 6.28002 23.0098 5.67111 21.799C5.06268 20.5872 4.78453 19.2596 4.78436 17.7897C4.78436 17.3046 4.81459 16.8045 4.8743 16.2883L4.87477 16.2847C4.93641 15.7034 4.9667 15.0834 4.9667 14.4535C4.966 12.8848 4.78154 11.2505 4.40818 9.96506C4.22021 9.32158 3.98766 8.76477 3.68303 8.33428C3.52939 8.11977 3.35619 7.93531 3.15205 7.7965C2.94908 7.6577 2.70902 7.56699 2.4549 7.55598C2.34018 7.55041 2.19932 7.55094 2.04346 7.54643C1.92697 7.54291 1.80469 7.53787 1.6902 7.52738C1.60447 7.51988 1.52303 7.50887 1.45359 7.49533L1.37168 7.47576C1.79666 6.82877 2.19434 6.33559 2.56219 5.96275C3.13125 5.3859 3.62414 5.09422 4.05891 4.93736C4.49438 4.7815 4.88033 4.75742 5.25844 4.75701C5.40926 4.75701 5.55885 4.761 5.70873 4.761C6.04729 4.761 6.38203 4.83717 6.70459 4.9765C7.18799 5.18398 7.64273 5.53426 8.01287 5.95977C8.38342 6.38428 8.66889 6.88191 8.82574 7.36402C8.92723 7.67527 8.98184 8.0075 8.98184 8.35385L8.98506 8.40494C9.15621 9.72348 9.74754 11.0916 10.7404 12.1496C11.2375 12.6778 11.8364 13.1268 12.5317 13.4431C13.2266 13.7594 14.0179 13.9422 14.8892 13.9417C15.33 13.9417 15.7181 13.8866 16.0629 13.7783C16.3646 13.6836 16.6315 13.5483 16.8647 13.3799C17.2742 13.0842 17.5757 12.6968 17.8292 12.2708C18.2088 11.6294 18.4948 10.8921 18.8749 10.1299C19.254 9.36758 19.7205 8.58031 20.4442 7.83307C21.5774 6.66482 22.9997 6.1557 24.3774 6.15418C25.8172 6.15266 27.1964 6.72049 28.09 7.67018C28.4849 8.08666 28.6894 8.63943 28.6884 9.1516C28.6879 9.58068 28.5491 9.97057 28.2855 10.2503Z" stroke="#006450" stroke-width="2" mask="url(#path-5-inside-1_964_250)"/>
<path d="M0.0649219 7.93508L0.0653906 7.9366C0.0653906 7.9366 0.0651562 7.93555 0.0651562 7.93508C0.0649219 7.93508 0.0646875 7.93461 0.0644531 7.93408L0.0649219 7.93508Z" fill="black"/>
</svg>
